# xmcd CD database file
#
# Track frame offsets:
#	150
#	18165
#	34218
#	48853
#	67133
#	78578
#	95253
#	111160
#	132123
#	147485
#	159715
#	170860
#	181868
#
# Disc length: 2622 seconds
#
# Revision: 0
# Processed by: cddbd v1.5.1PL2 Copyright (c) Steve Scherf et al.
# Submitted via: CDex 1.51
#
DISCID=b20a3c0d
DTITLE=Jamie Hoover - Coupons, Questions And Comments
DYEAR=1990
DGENRE=Rock
TTITLE0=Soldier
TTITLE1=Coupons
TTITLE2=Questions
TTITLE3=The box
TTITLE4=Duo-not
TTITLE5=Watchin' You Stumble
TTITLE6=In the black
TTITLE7=In shame
TTITLE8=Don't talk too lout
TTITLE9=Forgive and forget
TTITLE10=Ignoramos and Andy
TTITLE11=Jack in the box
TTITLE12=Lie in the fire
EXTD=YEAR: 1990
EXTT0=
EXTT1=
EXTT2=
EXTT3=
EXTT4=
EXTT5=
EXTT6=
EXTT7=
EXTT8=
EXTT9=
EXTT10=
EXTT11=
EXTT12=
PLAYORDER=
